<?xml version="1.0" encoding="UTF-8" standalone="no"?> <svg xmlns:dc="http://purl.org/dc/elements/1.1/" xmlns:cc="http://creativecommons.org/ns#" xmlns:rdf="http://www.w3.org/1999/02/22-rdf-syntax-ns#" xmlns:svg="http://www.w3.org/2000/svg" xmlns="http://www.w3.org/2000/svg" version="1.1" id="svg2" viewBox="0 0 440.99054 146.00364" height="41.205471mm" width="124.45733mm"><defs id="defs4"></defs><metadata id="metadata7"></metadata><g transform="translate(-82.320415,-648.07285)" id="layer1"><g style="fill:#ffffff;fill-opacity:1" transform="translate(25.714286,211.42857)" id="g4352"><path id="path4356" d="m 96.865101,581.11379 c -7.774072,-2.09424 -11.749739,-3.95657 -18.390072,-8.61449 -6.512905,-4.56855 -14.007411,-13.695 -17.122843,-20.85138 -2.488622,-5.71655 -4.746057,-16.18073 -4.746057,-22 0,-12.54595 6.073006,-27.84061 14.465273,-36.43031 17.928788,-18.35058 35.565128,-34.3522 41.097858,-37.2885 21.71397,-11.5239 48.75425,-7.0303 64.74941,10.76016 12.99346,14.45186 17.03362,35.15038 10.38584,53.20865 l -2.48488,6.75 96.37589,0 c 53.00673,0 96.37588,0.26074 96.37588,0.57943 0,0.31868 -9.5346,12.91868 -21.188,28 l -21.18799,27.42057 -116.56201,-0.0658 c -96.7139,-0.0546 -117.44852,-0.30463 -121.768299,-1.46832 z m 28.949329,-6.42353 c 26.67538,-10.12952 38.42302,-42.03256 25.1416,-68.27699 -5.31555,-10.50367 -18.84369,-21.01837 -30.49929,-23.70546 -7.14788,-1.64788 -18.04603,-1.25417 -25.030003,0.90424 -8.765563,2.70901 -14.701562,6.73708 -20.89455,14.17871 -10.146275,12.19199 -14.36801,25.83412 -12.140567,39.23108 3.118378,18.7555 16.839528,33.91059 35.444332,39.14848 7.272428,2.04743 20.536918,1.34574 27.978478,-1.48006 z m -25.07475,-28.13158 c -6.414258,-3.25862 -9.630318,-8.69422 -9.651401,-16.31223 -0.02108,-7.61775 2.587664,-12.9868 8.255878,-16.99139 9.059043,-6.4002 23.163743,-1.8786 27.163623,8.70796 1.71031,4.5267 1.27511,12.35003 -0.92715,16.66681 -4.62493,9.06561 -15.66628,12.58984 -24.84095,7.92885 z m 14.9256,-4.45931 c 8.1553,-4.21727 9.33214,-17.23099 2.14629,-23.7341 -7.13394,-6.45613 -20.014725,-1.76645 -21.837681,7.95074 -1.572582,8.38259 4.975741,17.33191 12.681971,17.33191 2.20817,0 5.36241,-0.69685 7.00942,-1.54855 z m 219.7702,31.79855 c 17.74627,-22.49533 31.83789,-41.2147 31.37452,-41.67807 -0.31456,-0.31456 -41.88537,-0.57193 -92.37957,-0.57193 l -91.80764,0 -19.77569,19.83567 c -10.87664,10.90961 -21.99035,21.25961 -24.69714,23 l -4.92145,3.16433 99.62432,0 99.62432,0 2.95833,-3.75 z M 170.06767,536.8376 c 3.98075,-4.02067 8.44923,-9.70481 9.92996,-12.63142 9.73495,-19.2408 6.48968,-40.65067 -8.42207,-55.56242 -9.55266,-9.55266 -20.32668,-13.96253 -34.16507,-13.98397 -14.24184,-0.0221 -24.04371,4.55049 -36.30423,16.93585 -6.741866,6.81053 -6.85427,7.00427 -3.506597,6.04417 5.035917,-1.44428 18.630477,-1.19206 24.840777,0.46087 18.22312,4.85026 32.80055,19.66336 37.64187,38.25043 1.87572,7.20136 1.89515,19.18205 0.0424,26.1428 l -1.42294,5.34599 2.06409,-1.84599 c 1.13524,-1.01529 5.32106,-5.13563 9.3018,-9.15631 z m 229.57481,-28.88086 c -7.05493,-3.72162 -7.57108,-5.40087 -7.57108,-24.63215 0,-19.08322 0.80996,-22.23424 6.46727,-25.15974 3.72268,-1.92508 12.27951,-1.95779 15.94754,-0.061 5.43257,2.80929 6.58519,7.1928 6.58519,25.04405 0,17.32046 -0.83037,20.70468 -5.89433,24.02272 -3.82057,2.50333 -11.53889,2.8939 -15.53459,0.7861 z m 9.70641,-6.86552 c 2.1393,-1.49843 2.22251,-2.15608 2.22251,-17.56574 0,-9.1231 -0.44526,-16.84102 -1.03518,-17.9433 -1.17324,-2.19222 -5.86335,-2.63573 -7.76482,-0.73426 -0.83777,0.83777 -1.2,6.25407 -1.2,17.9433 0,16.16843 0.0763,16.79674 2.22251,18.3 1.22237,0.85618 2.47225,1.5567 2.77749,1.5567 0.30524,0 1.55512,-0.70052 2.77749,-1.5567 z m 27.62862,6.71281 c -6.25591,-2.93174 -7.40611,-6.82277 -7.40611,-25.05422 0,-16.90813 1.0492,-20.94175 6.27623,-24.1288 2.23219,-1.36102 5.02314,-1.96676 9.07377,-1.96935 5.28158,-0.003 6.16913,0.31539 9.13433,3.28059 4.43537,4.43537 5.87624,11.66416 5.31814,26.6809 -0.62589,16.84068 -3.47502,21.58134 -13.5973,22.62452 -3.35882,0.34616 -5.8766,-0.0641 -8.79906,-1.43364 z m 10.59389,-7.15611 c 1.82545,-1.82545 2,-3.33333 2,-17.27749 0,-12.37272 -0.30359,-15.71093 -1.59669,-17.5571 -2.12019,-3.02699 -6.39277,-2.58759 -8.1154,0.83459 -1.6487,3.27533 -1.75973,29.2351 -0.13821,32.31574 2.19842,4.17665 4.79979,4.73477 7.8503,1.68426 z m 27.0964,7.73526 c -6.2276,-3.20049 -8.59943,-12.05782 -7.82867,-29.23526 0.75165,-16.75144 3.9388,-22.5 12.47458,-22.5 2.09697,0 4.81281,0.70052 6.03518,1.5567 l 2.22251,1.55671 0,-11.55671 0,-11.5567 5,0 5,0 0,36 0,36 -4.41667,0 c -2.63153,0 -4.59486,-0.50523 -4.85754,-1.25 -0.33193,-0.94111 -1.19376,-0.81756 -3.48763,0.5 -3.56929,2.05014 -6.79632,2.20455 -10.14176,0.48526 z m 11.55121,-7.50057 c 1.47216,-0.94246 1.59661,-2.68689 1.46308,-20.50944 l -0.11069,-14.77475 -2.63208,-1.00072 c -3.59749,-1.36776 -5.92997,-0.42129 -7.33781,2.97752 -1.69341,4.08827 -1.01532,30.18912 0.84233,32.4226 1.4109,1.69633 5.73829,2.18877 7.77517,0.88479 z M 246.13654,483.67586 c -2.66896,-13.73464 -4.90047,-25.32214 -4.9589,-25.75 -0.0584,-0.42787 2.03126,-0.9151 4.64376,-1.08273 2.6125,-0.16764 4.75,-0.12541 4.75,0.0938 0,1.55471 5.96117,39.00546 6.25549,39.29977 0.20495,0.20495 1.70324,-8.5062 3.32954,-19.3581 l 2.9569,-19.73072 3.86082,-0.31822 c 2.12344,-0.17502 4.20794,0.05 4.63222,0.5 0.60946,0.64643 -6.06763,39.10337 -8.51947,49.06822 -0.49443,2.00952 -1.17052,2.25 -6.32565,2.25 l -5.77204,0 -4.85267,-24.97206 z m 32.66798,-0.77794 0.26688,-25.75 4.5,0 c 4.17238,0 4.52315,0.20143 4.81804,2.76672 l 0.31803,2.76673 3.65981,-3.01673 c 2.12307,-1.75001 4.82382,-3.01672 6.43196,-3.01672 2.65939,0 2.77216,0.2031 2.77216,4.9928 l 0,4.9928 -3.92955,-0.15397 c -2.24014,-0.0878 -5.03464,0.57011 -6.5,1.53025 l -2.57045,1.68423 0,19.47694 0,19.47695 -5.01688,0 -5.01688,0 0.26688,-25.75 z m 64.76688,-10.25 0,-36 5,0 5,0 0,15.5 0,15.5 9,0 9,0 0,-15.5 0,-15.5 5.5,0 5.5,0 0,36 0,36 -5.5,0 -5.5,0 0,-17 0,-17 -9,0 -9,0 0,17 0,17 -5,0 -5,0 0,-36 z m -30.75,-7.2205 c -2.91522,-1.40595 -2.84635,-2.05238 0.78014,-7.32331 l 3.03014,-4.40416 -3.65226,-1.52602 c -2.00875,-0.8393 -4.02075,-1.52601 -4.47113,-1.52601 -1.59667,0 -1.94691,-1.88389 -0.81295,-4.37267 l 1.14934,-2.52254 5.00241,2.53491 5.0024,2.53491 -0.6887,-6.0873 -0.6887,-6.08731 3.66984,0 3.66985,0 -0.42818,5.91955 -0.42818,5.91954 4.90742,-2.48678 c 2.69909,-1.36773 5.0511,-2.3431 5.22671,-2.16749 0.17561,0.1756 0.6307,1.56008 1.01133,3.07662 0.6461,2.57427 0.35772,2.89628 -4.34367,4.85009 l -5.03572,2.09275 3.43255,4.77787 3.43256,4.77787 -2.47242,1.61999 c -1.35983,0.89099 -2.70567,1.61999 -2.99075,1.61999 -0.28509,0 -1.6585,-2.25 -3.05203,-5 -1.39353,-2.75 -2.74353,-5 -3,-5 -0.25647,0 -1.60647,2.25 -3,5 -1.39353,2.75 -2.63861,4.96954 -2.76685,4.93232 -0.12823,-0.0372 -1.24565,-0.55599 -2.48315,-1.15282 z" style="fill:#ffffff;fill-opacity:1"></path><path id="path4354" d="m 102.0714,581.92962 c -19.518258,-2.72367 -35.916021,-16.71658 -42.517162,-36.2817 -1.901134,-5.63477 -2.131937,-8.03079 -1.733901,-18 0.804813,-20.15736 3.199748,-24.13873 30.124638,-50.07957 14.632015,-14.09725 21.109515,-19.6403 25.600465,-21.90732 15.90495,-8.0288 31.73733,-8.08073 48.01134,-0.15748 23.53997,11.46079 35.18944,41.90748 25.06859,65.51847 -1.12968,2.63544 -2.05397,5.2044 -2.05397,5.70881 0,0.54975 38.45227,0.91709 96,0.91709 52.8,0 96,0.21407 96,0.47572 0,0.26164 -6.55551,8.92414 -14.5678,19.25 -8.01228,10.32585 -17.34978,22.47112 -20.75,26.98948 l -6.1822,8.2152 -115,-0.11503 c -63.25,-0.0633 -116.35,-0.30342 -118,-0.53367 z m 20.5685,-5.86716 c 19.97648,-5.83116 34.06389,-24.75785 34.17577,-45.91574 0.0742,-14.02606 -3.72017,-23.65835 -13.39245,-33.99805 -14.14609,-15.12222 -35.89466,-19.30954 -54.405891,-10.47494 -7.281085,3.47494 -18.017275,14.22137 -21.938384,21.95931 -13.527664,26.69555 -0.884058,58.07726 27.264161,67.67023 8.177134,2.78678 20.241734,3.11047 28.296794,0.75919 z m -20.68459,-29.2717 c -9.264899,-4.33332 -13.59855,-16.51715 -9.12087,-25.64284 1.474485,-3.00506 5.893302,-7.49902 8.9373,-9.08928 6.95019,-3.63095 17.77109,-0.43322 22.4477,6.63362 7.81541,11.80988 0.24187,28.52629 -13.42841,29.63937 -3.2323,0.26318 -6.01676,-0.2224 -8.83572,-1.54087 z m 11.16308,-3.14284 c 2.66067,0 8.40814,-6.11966 9.47761,-10.09135 2.1623,-8.03018 -3.37118,-16.94504 -11.45973,-18.46246 -4.55672,-0.85484 -10.28595,1.924 -13.301671,6.45169 -3.729354,5.59912 -2.6576,15.04013 2.16139,19.03953 2.201201,1.82683 8.821671,4.06667 10.407201,3.52096 0.73248,-0.2521 1.95432,-0.45837 2.7152,-0.45837 z m 233.991,15.85856 c 17.40692,-22.61757 20.46201,-26.70035 20.46201,-27.34517 0,-0.96016 -186.8215,-0.54634 -187.16667,0.41459 -0.53564,1.49119 -34.16833,35.37997 -38.44165,38.73436 -2.14043,1.68014 -5.24168,3.77543 -6.89168,4.6562 -2.76888,1.47801 4.7455,1.60447 97.53799,1.64142 l 100.53799,0.04 13.96201,-18.14144 z M 181.3233,521.95506 c 3.23021,-6.80189 3.72357,-8.8598 4.08049,-17.02036 0.58357,-13.34291 -2.01207,-22.1287 -9.39522,-31.80114 -4.80498,-6.29487 -7.74389,-8.83264 -15.09517,-13.03481 -7.74217,-4.42561 -18.60474,-6.85032 -26.98433,-6.02336 -13.23121,1.30575 -22.92888,6.43158 -34.357668,18.16019 -5.133655,5.26834 -5.974483,6.52748 -4,5.99002 10.301928,-2.8042 26.866158,-1.19422 36.271318,3.52545 21.56477,10.82155 33.73472,36.2546 28.33202,59.20892 -0.88184,3.74663 -1.59176,7.12163 -1.57761,7.5 0.0142,0.37837 4.30657,-3.68953 9.53871,-9.03978 7.54952,-7.71994 10.27139,-11.32472 13.18746,-17.46513 z m 69.75096,-15.55714 c -0.98159,-4.12626 -9.50286,-47.11177 -9.50286,-47.93714 0,-0.44707 2.025,-0.81286 4.5,-0.81286 2.475,0 4.5,0.39369 4.5,0.87486 0,1.29249 4.96253,34.22911 5.57372,36.99314 0.28799,1.3024 0.67794,2.2024 0.86656,2 0.18861,-0.2024 1.52779,-8.243 2.97596,-17.868 3.61609,-24.03384 2.91323,-22 7.60281,-22 2.4276,0 3.98095,0.46781 3.98095,1.1989 0,2.47416 -8.15852,45.3945 -9.03876,47.5511 -0.78003,1.91109 -1.67186,2.25 -5.92075,2.25 -4.3624,0 -5.07086,-0.28786 -5.53763,-2.25 z m 28.28177,-21.59336 c -0.15655,-13.11385 -0.13913,-24.58885 0.0387,-25.5 0.23537,-1.20603 1.39138,-1.65664 4.24999,-1.65664 3.69631,0 3.92668,0.176 3.92668,3 0,3.38381 1.42917,3.93512 2.93024,1.13035 0.97369,-1.81935 6.76327,-5.13035 8.97089,-5.13035 0.65011,0 1.09887,2.01623 1.09887,4.93713 l 0,4.93713 -3.30532,-0.53638 c -2.60834,-0.42328 -3.97898,0.0305 -6.5,2.15176 l -3.19468,2.68815 0,18.9111 0,18.91111 -3.96537,0 -3.96538,0 -0.28462,-23.84336 z m 64.92909,23.22375 c -0.39255,-0.39255 -0.71372,-16.61372 -0.71372,-36.04706 l 0,-35.33333 5.0489,0 5.0489,0 -0.2989,15.50144 -0.2989,15.50144 9.75,-10e-4 9.75,-0.001 0,-15.5 0,-15.5 4.5,0 4.5,0 0,36 0,36 -4.5,0 -4.5,0 0,-17 0,-17 -9.75,-7.2e-4 -9.75,-7.2e-4 0,16.75072 0,16.75072 -4.03628,0.29705 c -2.21995,0.16338 -4.35745,-0.0241 -4.75,-0.41666 z m 53.5754,-1.34564 c -4.98528,-3.03968 -6.60825,-10.04154 -6.12899,-26.44199 0.43657,-14.93965 1.80126,-18.735 7.87389,-21.89814 4.18799,-2.18146 11.58008,-1.83272 15.49266,0.73091 4.85827,3.18325 5.92905,7.51411 5.95228,24.07447 0.0235,16.77014 -1.20582,21.27315 -6.56415,24.04405 -4.11158,2.12618 -12.73665,1.86197 -16.62569,-0.5093 z m 12.07997,-5.5467 c 2.16766,-2.16765 2.89548,-8.68899 2.48759,-22.28898 -0.40269,-13.42649 -1.26244,-15.49034 -6.2487,-15.00014 -4.99772,0.49134 -5.69083,3.14946 -5.3803,20.63377 0.2459,13.84518 0.46064,15.4702 2.21345,16.75 2.5122,1.83426 5.03349,1.79982 6.92796,-0.0947 z m 26.52418,6.01504 c -5.78846,-3.14619 -6.39327,-5.41691 -6.39327,-24.00309 0,-19.35035 0.74244,-21.96357 7.09669,-24.97886 4.59999,-2.18284 12.44492,-1.62718 16.15716,1.1444 4.13943,3.09053 5.0867,7.41763 5.17007,23.61658 0.0837,16.2695 -0.74502,19.8588 -5.4376,23.54998 -3.2817,2.58138 -12.39987,2.9501 -16.59305,0.67099 z m 11.27799,-6.15808 c 1.62788,-1.47321 1.82874,-3.42924 1.82874,-17.80887 0,-17.77512 -0.55901,-19.78614 -5.5,-19.78614 -4.91301,0 -5.5,2.05113 -5.5,19.21862 0,12.48841 0.30941,16.02811 1.5567,17.80887 1.84336,2.63177 5.06803,2.8721 7.61456,0.56752 z m 25.11791,5.88275 c -4.20557,-3.28666 -5.28917,-8.06622 -5.28917,-23.32962 0,-7.79136 0.51642,-15.88977 1.14761,-17.99648 2.32855,-7.772 9.69668,-10.96113 16.30976,-7.05931 l 3.54263,2.0902 0,-11.96628 0,-11.96627 4.51263,0 4.51263,0 -0.26263,35.75 -0.26263,35.75 -4.25,0.3075 c -3.31246,0.23966 -4.25,-0.0361 -4.25,-1.25 0,-1.92267 -0.92399,-1.92957 -3.44113,-0.0257 -2.6396,1.99649 -9.54492,1.82538 -12.2697,-0.30404 z m 14.12904,-5.83475 c 1.35771,-0.521 1.58179,-3.04819 1.58179,-17.83948 l 0,-17.2325 -2.54705,-1.16051 c -3.80239,-1.73249 -6.16112,-1.41526 -7.89625,1.06199 -2.29386,3.27494 -2.28153,31.9098 0.0147,34.20606 1.59414,1.59415 5.96428,2.07056 8.84678,0.96444 z m -174.37169,-36.15426 -2.17505,-1.76124 3.06427,-4.2301 c 1.68534,-2.32655 3.06426,-4.59509 3.06426,-5.04121 0,-0.44611 -2.2152,-1.60769 -4.92266,-2.58128 -4.8174,-1.73231 -4.90094,-1.83249 -3.90657,-4.68494 l 1.01609,-2.91478 4.24443,2.4874 c 2.33443,1.36807 4.58236,2.4874 4.99539,2.4874 0.41303,0 0.59849,-2.70082 0.41214,-6.00182 l -0.33882,-6.00182 3.29966,0.002 3.29965,0.002 -0.67882,6 c -0.37335,3.3 -0.40774,6 -0.0764,6 0.33133,0 2.62958,-0.98488 5.10723,-2.18861 4.86665,-2.3644 4.982,-2.34896 5.94661,0.79608 0.55312,1.8034 -0.0889,2.41304 -4.44998,4.22542 -5.51965,2.29386 -5.51229,2.22163 -0.83922,8.2364 l 2.7731,3.5693 -2.75789,1.62913 -2.75789,1.62912 -2.79316,-5.69516 -2.79317,-5.69516 -2.90589,5.74674 c -1.59824,3.16075 -3.07383,5.74678 -3.27908,5.74678 -0.20525,0 -1.35195,-0.79256 -2.54823,-1.76125 z" style="fill:#ffffff;fill-opacity:1"></path></g></g></svg> 