<?xml version="1.0" encoding="utf-8"?>
<!-- Generator: Adobe Illustrator 16.0.0, SVG Export Plug-In . SVG Version: 6.00 Build 0)  -->
<!DOCTYPE svg PUBLIC "-//W3C//DTD SVG 1.1//EN" "http://www.w3.org/Graphics/SVG/1.1/DTD/svg11.dtd">
<svg version="1.1" id="Layer_1" xmlns="http://www.w3.org/2000/svg" xmlns:xlink="http://www.w3.org/1999/xlink" x="0px" y="0px"
	 width="24px" height="24px" viewBox="0 0 24 24" style="enable-background:new 0 0 24 24;" xml:space="preserve">
<path d="M21.8,18.4l-8.3-6.5c1.1-1.1,2.3-2.4,2.3-4.4c0-2.1-1.7-3.8-3.8-3.8S8.2,5.4,8.2,7.5c0,0.6,0.4,1,1,1c0.6,0,1-0.4,1-1
	c0-0.9,0.9-1.8,1.8-1.8c1,0,1.8,0.8,1.8,1.8c0,1.5-1,2.4-2.2,3.5l-0.3,0.2L2,18.5c-0.3,0.3-0.5,0.7-0.3,1.1c0.1,0.4,0.5,0.7,0.9,0.7
	h18.7l0,0c0.6,0,1-0.4,1-1C22.4,18.9,22.2,18.6,21.8,18.4z M5.6,18.3l6.5-5l6.4,5H5.6z"/>
</svg>
