<?xml version="1.0" encoding="utf-8"?>
<!-- Generator: Adobe Illustrator 16.0.0, SVG Export Plug-In . SVG Version: 6.00 Build 0)  -->
<!DOCTYPE svg PUBLIC "-//W3C//DTD SVG 1.1//EN" "http://www.w3.org/Graphics/SVG/1.1/DTD/svg11.dtd">
<svg version="1.1" id="Layer_1" xmlns="http://www.w3.org/2000/svg" xmlns:xlink="http://www.w3.org/1999/xlink" x="0px" y="0px"
	 width="24px" height="24px" viewBox="0 0 24 24" style="enable-background:new 0 0 24 24;" xml:space="preserve">
<path d="M20.2,5.4l-1.6-1.6c-0.5-0.5-1.1-0.7-1.6-0.7c-0.6,0-1.2,0.2-1.6,0.7l-2,2l-8.9,8.9l-1.3,6.1l6.1-1.3l8.4-8.4l2.5-2.5
	C21.1,7.7,21.1,6.2,20.2,5.4z M8.3,17.8l-2.5,0.5l0.5-2.5l6.8-6.8l2,2L8.3,17.8z M18.8,7.1l-2.3,2.3l-2-2l0.3-0.3l2-2
	C16.8,5,16.9,5,17,5s0.1,0,0.2,0.1l1.6,1.6c0.1,0.1,0.1,0.1,0.1,0.2S18.9,7,18.8,7.1z"/>
</svg>
