<?xml version="1.0" encoding="utf-8"?>
<!-- Generator: Adobe Illustrator 16.0.0, SVG Export Plug-In . SVG Version: 6.00 Build 0)  -->
<!DOCTYPE svg PUBLIC "-//W3C//DTD SVG 1.1//EN" "http://www.w3.org/Graphics/SVG/1.1/DTD/svg11.dtd">
<svg version="1.1" id="Layer_1" xmlns="http://www.w3.org/2000/svg" xmlns:xlink="http://www.w3.org/1999/xlink" x="0px" y="0px"
	 width="48px" height="48px" viewBox="0 0 48 48" style="enable-background:new 0 0 48 48;" xml:space="preserve">
<path d="M32.5,7.7c-2.2,0-4.2,0.6-6.2,1.4V3.7h-4v5.4c-2-1-4-1.4-6.2-1.4c-6.2,0-12.8,4.6-12.8,14.4c0,8.8,6,22,14.2,22
	c3.4,0,5-1,6.2-1.8c0.2-0.2,0.6-0.4,0.6-0.4s0.4,0.2,0.6,0.4c1,0.8,2.8,1.8,6.2,1.8c8.6,0,14.2-13.2,14.2-22
	C45.3,12.3,38.7,7.7,32.5,7.7z M31.1,40.3c-2.2,0-3-0.6-4-1.2c-0.6-0.4-1.4-1-2.8-1c-1.4,0-2.2,0.6-2.8,1c-0.8,0.6-1.6,1.2-4,1.2
	c-5,0-10.2-10.4-10.2-18c0-7.2,4.4-10.4,8.8-10.4c2.4,0,4.8,1,6.8,2.6l1.2,1l1.2-1c2-1.8,4.6-2.6,7-2.6c4.4,0,8.8,3.2,8.8,10.6
	C41.3,29.9,36.3,40.3,31.1,40.3z"/>
</svg>
