<?xml version="1.0" encoding="utf-8"?>
<!-- Generator: Adobe Illustrator 16.0.0, SVG Export Plug-In . SVG Version: 6.00 Build 0)  -->
<!DOCTYPE svg PUBLIC "-//W3C//DTD SVG 1.1//EN" "http://www.w3.org/Graphics/SVG/1.1/DTD/svg11.dtd">
<svg version="1.1" id="Layer_1" xmlns="http://www.w3.org/2000/svg" xmlns:xlink="http://www.w3.org/1999/xlink" x="0px" y="0px"
	 width="24px" height="24px" viewBox="0 0 24 24" style="enable-background:new 0 0 24 24;" xml:space="preserve">
<path d="M18.3,14.1c0.4-0.3,0.6-0.7,0.6-1.2c0-0.9-0.9-1.6-2-1.6v-8c0-1.1-0.9-2-2-2h-6c-1.1,0-2,0.9-2,2v8c-1.1,0-2,0.7-2,1.6
	c0,0.7,0.5,1.2,1.2,1.5l-0.9,7.1c-0.1,0.5,0.3,1,0.9,1.1c0.6,0.1,1-0.3,1.1-0.9l0.9-7.2h8.2l0.9,7.2c0.1,0.5,0.5,0.9,1,0.9h0.1
	c0.5-0.1,0.9-0.6,0.9-1.1L18.3,14.1z M9,3.3h6v8H9V3.3z"/>
</svg>
