<?xml version="1.0" encoding="utf-8"?>
<!-- Generator: Adobe Illustrator 16.0.0, SVG Export Plug-In . SVG Version: 6.00 Build 0)  -->
<!DOCTYPE svg PUBLIC "-//W3C//DTD SVG 1.1//EN" "http://www.w3.org/Graphics/SVG/1.1/DTD/svg11.dtd">
<svg version="1.1" id="Layer_1" xmlns="http://www.w3.org/2000/svg" xmlns:xlink="http://www.w3.org/1999/xlink" x="0px" y="0px"
	 width="24px" height="24px" viewBox="0 0 24 24" style="enable-background:new 0 0 24 24;" xml:space="preserve">
<path d="M17,3.6c-2.2,0-4,1.1-5,1.9c-1-0.8-2.8-1.9-5-1.9c-2.7,0-5.5,1.6-5.5,3.1V19c0,0.4,0.2,0.8,0.6,0.9c0.4,0.2,0.8,0.1,1.1-0.2
	C3.2,19.8,5,18,7,18s3.8,1.8,3.8,1.8c0.2,0.2,0.6,0.6,1.2,0.6c0.6,0,0.9-0.3,1.2-0.6c0,0,1.8-1.8,3.8-1.8s3.8,1.8,3.8,1.8
	c0.3,0.3,0.7,0.4,1.1,0.2c0.4-0.2,0.6-0.5,0.6-0.9V6.8C22.5,5.2,19.7,3.6,17,3.6z M7,16c-1.4,0-2.6,0.5-3.5,1.1V7
	C3.8,6.5,5.2,5.6,7,5.6c1.8,0,3.4,1.2,4,1.7v10C10.1,16.6,8.7,16,7,16z M20.5,17C19.6,16.5,18.4,16,17,16c-1.6,0-3.1,0.7-4,1.4v-10
	c0.6-0.5,2.2-1.7,4-1.7c1.8,0,3.2,0.9,3.5,1.3V17z"/>
</svg>
