<?xml version="1.0" encoding="utf-8"?>
<!-- Generator: Adobe Illustrator 16.0.0, SVG Export Plug-In . SVG Version: 6.00 Build 0)  -->
<!DOCTYPE svg PUBLIC "-//W3C//DTD SVG 1.1//EN" "http://www.w3.org/Graphics/SVG/1.1/DTD/svg11.dtd">
<svg version="1.1" id="Layer_1" xmlns="http://www.w3.org/2000/svg" xmlns:xlink="http://www.w3.org/1999/xlink" x="0px" y="0px"
	 width="595.3px" height="841.9px" viewBox="0 0 595.3 841.9" style="enable-background:new 0 0 595.3 841.9;" xml:space="preserve"
	>
<style type="text/css">
<![CDATA[
	.st0{fill:#263972;}
	.st1{fill:#FFFFFF;}
]]>
</style>
<path class="st0" d="M301.7,451.9c0,0,16.8-15.8,16.8-31.2c0-9.3-7.5-16.8-16.8-16.8c-9.3,0-16.8,7.5-16.8,16.8
	C284.9,436.1,301.7,451.9,301.7,451.9"/>
<path class="st1" d="M306.5,412.5c-2.2,0-4,1.1-5,1.9c-1-0.8-2.8-1.9-5-1.9c-2.7,0-5.5,1.6-5.5,3.1v12.3c0,0.4,0.2,0.8,0.6,0.9
	c0.4,0.2,0.8,0.1,1.1-0.2c0,0,1.8-1.8,3.8-1.8c2,0,3.8,1.8,3.8,1.8c0.2,0.2,0.6,0.6,1.2,0.6c0.6,0,0.9-0.3,1.2-0.6
	c0,0,1.8-1.8,3.8-1.8c2,0,3.8,1.8,3.8,1.8c0.3,0.3,0.7,0.4,1.1,0.2c0.4-0.2,0.6-0.5,0.6-0.9v-12.3
	C312,414.1,309.2,412.5,306.5,412.5z M296.5,424.8c-1.4,0-2.6,0.5-3.5,1.1v-10.1c0.3-0.4,1.7-1.3,3.5-1.3c1.8,0,3.4,1.2,4,1.7v10
	C299.6,425.5,298.2,424.8,296.5,424.8z M310,425.8c-0.9-0.6-2.1-1.1-3.5-1.1c-1.6,0-3.1,0.7-4,1.4v-10c0.6-0.5,2.2-1.7,4-1.7
	c1.8,0,3.2,0.9,3.5,1.3V425.8z"/>
</svg>
