<?xml version="1.0" encoding="utf-8"?>
<!-- Generator: Adobe Illustrator 16.0.0, SVG Export Plug-In . SVG Version: 6.00 Build 0)  -->
<!DOCTYPE svg PUBLIC "-//W3C//DTD SVG 1.1//EN" "http://www.w3.org/Graphics/SVG/1.1/DTD/svg11.dtd">
<svg version="1.1" id="Layer_1" xmlns="http://www.w3.org/2000/svg" xmlns:xlink="http://www.w3.org/1999/xlink" x="0px" y="0px"
	 width="595.3px" height="841.9px" viewBox="0 0 595.3 841.9" style="enable-background:new 0 0 595.3 841.9;" xml:space="preserve"
	>
<style type="text/css">
<![CDATA[
	.st0{fill:#FFFFFF;}
	.st1{fill:#A57247;}
]]>
</style>
<path class="st1" d="M302.5,455.7c0,0,16.8-15.8,16.8-31.2c0-9.3-7.5-16.8-16.8-16.8c-9.3,0-16.8,7.5-16.8,16.8
	C285.7,439.9,302.5,455.7,302.5,455.7"/>
<path class="st0" d="M308.6,429.8c0.4-0.3,0.6-0.7,0.6-1.2c0-0.9-0.9-1.6-2-1.6v-8c0-1.1-0.9-2-2-2h-6c-1.1,0-2,0.9-2,2v8
	c-1.1,0-2,0.7-2,1.6c0,0.7,0.5,1.2,1.2,1.5l-0.9,7.1c-0.1,0.5,0.3,1,0.9,1.1c0.5,0.1,1-0.3,1.1-0.9l0.9-7.2h8.2l0.9,7.2
	c0.1,0.5,0.5,0.9,1,0.9h0.1c0.5-0.1,0.9-0.6,0.9-1.1L308.6,429.8z M299.2,419h6v8h-6V419z"/>
</svg>
