<?xml version="1.0" encoding="utf-8"?>
<!-- Generator: Adobe Illustrator 16.0.0, SVG Export Plug-In . SVG Version: 6.00 Build 0)  -->
<!DOCTYPE svg PUBLIC "-//W3C//DTD SVG 1.1//EN" "http://www.w3.org/Graphics/SVG/1.1/DTD/svg11.dtd">
<svg version="1.1" id="Layer_1" xmlns="http://www.w3.org/2000/svg" xmlns:xlink="http://www.w3.org/1999/xlink" x="0px" y="0px"
	 width="595.3px" height="841.9px" viewBox="0 0 595.3 841.9" style="enable-background:new 0 0 595.3 841.9;" xml:space="preserve"
	>
<style type="text/css">
<![CDATA[
	.st0{fill:#93B556;}
	.st1{fill:#FFFFFF;}
]]>
</style>
<path class="st0" d="M297.5,455.7c0,0,16.8-15.8,16.8-31.2c0-9.3-7.5-16.8-16.8-16.8c-9.3,0-16.8,7.5-16.8,16.8
	C280.7,439.9,297.5,455.7,297.5,455.7"/>
<path class="st1" d="M307.3,430.1l-8.3-6.5c1.1-1.1,2.3-2.4,2.3-4.4c0-2.1-1.7-3.8-3.8-3.8c-2.1,0-3.8,1.7-3.8,3.8c0,0.6,0.4,1,1,1
	s1-0.4,1-1c0-0.9,0.9-1.8,1.8-1.8c1,0,1.8,0.8,1.8,1.8c0,1.5-1,2.4-2.2,3.5l-0.3,0.2l-9.4,7.3c-0.3,0.3-0.5,0.7-0.3,1.1
	c0.1,0.4,0.5,0.7,0.9,0.7h18.7c0,0,0,0,0,0c0.6,0,1-0.4,1-1C307.8,430.6,307.6,430.3,307.3,430.1z M291,430l6.5-5l6.4,5H291z"/>
</svg>
