<?xml version="1.0" encoding="utf-8"?>
<!-- Generator: Adobe Illustrator 16.0.0, SVG Export Plug-In . SVG Version: 6.00 Build 0)  -->
<!DOCTYPE svg PUBLIC "-//W3C//DTD SVG 1.1//EN" "http://www.w3.org/Graphics/SVG/1.1/DTD/svg11.dtd">
<svg version="1.1" id="Layer_1" xmlns="http://www.w3.org/2000/svg" xmlns:xlink="http://www.w3.org/1999/xlink" x="0px" y="0px"
	 width="100px" height="100px" viewBox="280 405 50 50" style="enable-background:new 0 0 595.3 841.9;" xml:space="preserve"
	>
<style type="text/css">
<![CDATA[
	.st0{fill:#185A50;}
	.st1{fill:#FFFFFF;}
]]>
</style>
<path class="st0" d="M303.8,454.9c0,0,16.8-15.8,16.8-31.2c0-9.3-7.5-16.8-16.8-16.8c-9.3,0-16.8,7.5-16.8,16.8
	C287,439,303.8,454.9,303.8,454.9"/>
<path class="st1" d="M311.7,430.2c-3.8,0-6.1,1-7.2,3.4v-3.7c3.3-0.5,5.9-3.4,5.9-6.8v-5.8c-0.9,0-1.7,0.1-2.5,0.4
	c-0.6,0.3-1.2,0.7-1.7,1.2l-2.7-2.7l-2.7,2.7c-0.5-0.5-1-0.9-1.7-1.2c-0.8-0.3-1.6-0.4-2.5-0.4v5.8c0,3.5,2.6,6.3,5.9,6.8v9.3h1.2
	h0.8h0.2c5.7,0,8-2.3,8-8v-1H311.7L311.7,430.2z M303.4,427.9c-2.7,0-4.9-2.2-4.9-4.9v-3.3c0.3,0.1,0.5,0.3,0.7,0.5l1.4,1.5l1.4-1.4
	l1.5-1.3l1.3,1.3l1.4,1.4l1.4-1.5c0.2-0.2,0.5-0.4,0.7-0.5v3.3C308.3,425.7,306.1,427.9,303.4,427.9z M305.7,437.1
	c0.2-3.5,1.5-4.8,4.9-4.9C310.5,435.7,309.2,437,305.7,437.1z"/>
</svg>
