<?xml version="1.0" encoding="utf-8"?>
<!-- Generator: Adobe Illustrator 16.0.0, SVG Export Plug-In . SVG Version: 6.00 Build 0)  -->
<!DOCTYPE svg PUBLIC "-//W3C//DTD SVG 1.1//EN" "http://www.w3.org/Graphics/SVG/1.1/DTD/svg11.dtd">
<svg version="1.1" id="Layer_1" xmlns="http://www.w3.org/2000/svg" xmlns:xlink="http://www.w3.org/1999/xlink" x="0px" y="0px"
	 width="595.3px" height="841.9px" viewBox="0 0 595.3 841.9" style="enable-background:new 0 0 595.3 841.9;" xml:space="preserve"
	>
<style type="text/css">
<![CDATA[
	.st0{fill:#5C1A51;}
	.st1{fill:#FFFFFF;}
]]>
</style>
<path class="st0" d="M297.5,445c0,0,16.8-15.8,16.8-31.2c0-9.3-7.5-16.8-16.8-16.8c-9.3,0-16.8,7.5-16.8,16.8
	C280.7,429.2,297.5,445,297.5,445"/>
<path class="st1" d="M301.6,407.5c-1.1,0-2.1,0.3-3.1,0.7v-2.7h-2v2.7c-1-0.5-2-0.7-3.1-0.7c-3.1,0-6.4,2.3-6.4,7.2
	c0,4.4,3,11,7.1,11c1.7,0,2.5-0.5,3.1-0.9c0.1-0.1,0.3-0.2,0.3-0.2c0,0,0.2,0.1,0.3,0.2c0.5,0.4,1.4,0.9,3.1,0.9
	c4.3,0,7.1-6.6,7.1-11C308,409.8,304.7,407.5,301.6,407.5z M300.9,423.8c-1.1,0-1.5-0.3-2-0.6c-0.4-0.2-0.8-0.5-1.4-0.5
	c-0.7,0-1.1,0.3-1.4,0.5c-0.4,0.3-0.8,0.6-2,0.6c-2.5,0-5.1-5.2-5.1-9c0-3.6,2.2-5.2,4.4-5.2c1.2,0,2.4,0.5,3.4,1.3l0.6,0.5l0.6-0.5
	c1-0.9,2.3-1.3,3.5-1.3c2.2,0,4.4,1.6,4.4,5.3C306,418.6,303.5,423.8,300.9,423.8z"/>
</svg>
