<?xml version="1.0" encoding="utf-8"?>
<!-- Generator: Adobe Illustrator 16.0.0, SVG Export Plug-In . SVG Version: 6.00 Build 0)  -->
<!DOCTYPE svg PUBLIC "-//W3C//DTD SVG 1.1//EN" "http://www.w3.org/Graphics/SVG/1.1/DTD/svg11.dtd">
<svg version="1.1" id="Layer_1" xmlns="http://www.w3.org/2000/svg" xmlns:xlink="http://www.w3.org/1999/xlink" x="0px" y="0px"
	 width="595.3px" height="841.9px" viewBox="0 0 595.3 841.9" style="enable-background:new 0 0 595.3 841.9;" xml:space="preserve"
	>
<style type="text/css">
<![CDATA[
	.st0{fill:#ED782C;}
	.st1{fill:#FFFFFF;}
]]>
</style>
<path class="st0" d="M309.5,457.4c0,0,16.8-15.8,16.8-31.2c0-9.3-7.5-16.8-16.8-16.8c-9.3,0-16.8,7.5-16.8,16.8
	C292.7,441.6,309.5,457.4,309.5,457.4"/>
<path class="st1" d="M318.2,420.9l-1.6-1.6c-0.5-0.5-1.1-0.7-1.6-0.7c-0.6,0-1.2,0.2-1.6,0.7l-2,2l-8.9,8.9l-1.3,6.1l6.1-1.3
	l8.4-8.4l2.5-2.5C319.1,423.2,319.1,421.8,318.2,420.9z M306.3,433.2l-2.5,0.5l0.5-2.5l6.8-6.8l2,2L306.3,433.2z M316.8,422.7
	l-2.3,2.3l-2-2l0.3-0.3l2-2c0-0.1,0.1-0.1,0.2-0.1c0.1,0,0.1,0,0.2,0.1l1.6,1.6c0.1,0.1,0.1,0.1,0.1,0.2S316.9,422.6,316.8,422.7z"
	/>
</svg>
